<svg height='100px' width='100px'  fill="#000000" xmlns="http://www.w3.org/2000/svg" xmlns:xlink="http://www.w3.org/1999/xlink" version="1.1" x="0px" y="0px" viewBox="0 0 100 100" enable-background="new 0 0 100 100" xml:space="preserve"><g><rect x="61.155" y="26.337" width="2.102" height="4.663"></rect><polygon points="70.168,25.713 66.602,20.446 69.28,20.446 65.209,14.435 67.758,14.435 62.206,6.236 56.653,14.435 59.202,14.435    55.131,20.446 57.809,20.446 54.243,25.713  "></polygon><rect x="34.893" y="25.442" width="2.026" height="4.495"></rect><polygon points="43.581,24.84 40.143,19.764 42.725,19.764 38.801,13.969 41.257,13.969 35.906,6.067 30.554,13.969 33.011,13.969    29.087,19.764 31.668,19.764 28.231,24.84  "></polygon><rect x="13.631" y="44.747" width="2.507" height="5.563"></rect><polygon points="24.385,44.003 20.13,37.719 23.325,37.719 18.468,30.547 21.509,30.547 14.885,20.764 8.26,30.547 11.301,30.547    6.444,37.719 9.64,37.719 5.384,44.003  "></polygon><rect x="82.934" y="44.747" width="2.507" height="5.563"></rect><polygon points="93.688,44.003 89.433,37.719 92.628,37.719 87.771,30.547 90.812,30.547 84.187,20.764 77.563,30.547    80.604,30.547 75.747,37.719 78.942,37.719 74.687,44.003  "></polygon><polygon points="35.38,42.206 21.982,67.493 27.438,69.683 34.579,59.064 41.278,75.24 50.147,78.8  "></polygon><polygon points="36.949,41.247 62.899,33.298 77.901,66.739 52.557,78.8  "></polygon></g><path d="M27.452,89.488l-3.471-2.208l2.784-0.343c0.909-0.112,1.554-0.939,1.442-1.849c-0.112-0.909-0.939-1.555-1.849-1.442  l-2.134,0.263l0.493-0.545c0.614-0.679,0.561-1.728-0.117-2.342c-0.115-0.104-0.244-0.182-0.376-0.248  c-0.04,0.199-0.09,0.39-0.139,0.58c0.118-0.655,0.199-1.352,0.231-2.095c0.167-2.894-1.524-6.933-1.627-7.058  c-0.269-0.595-0.548-1.18-0.838-1.755c-0.127,0.883-0.279,1.754-0.454,2.613c-0.856-2.065-1.844-4.024-2.947-5.864  c-0.168,2.153-0.491,4.238-0.952,6.24c-0.337-0.89-0.701-1.761-1.091-2.61c-0.135,0.598-0.283,1.187-0.443,1.768  c-0.014,0.185-1.06,3.673-1.187,6.016c-0.033,1.017,0.003,1.985,0.108,2.887l-1.009-0.642c-0.772-0.492-1.797-0.264-2.288,0.509  c-0.491,0.772-0.263,1.797,0.509,2.288l2.31,1.47l-4.007,0.494c-0.909,0.112-1.554,0.939-1.442,1.849  c0.104,0.839,0.818,1.455,1.643,1.455c0.068,0,0.136-0.004,0.205-0.013l4.982-0.615l-1.138,1.484  c-0.614,0.679-0.561,1.727,0.117,2.342c0.317,0.287,0.715,0.428,1.112,0.428c0.452,0,0.903-0.184,1.23-0.546l2.833-3.358  l5.728,3.644c0.276,0.176,0.584,0.259,0.888,0.259c0.548,0,1.084-0.272,1.4-0.769C28.452,91.004,28.224,89.979,27.452,89.488z   M16.024,78.654c0.042-1.143,0.375-2.577,0.661-3.791c0.33,0.942,0.628,1.905,0.894,2.889c0.696-2.058,1.247-4.222,1.631-6.474  c0.931,1.93,1.739,3.97,2.406,6.108c0.255-0.851,0.487-1.717,0.696-2.596c0.404,1.24,0.82,3.065,0.76,4.417  c-0.194,4.532-2.273,7.206-4.3,6.72C16.716,85.44,15.896,82.472,16.024,78.654z"></path></svg>