<svg height='100px' width='100px'  fill="#000000" xmlns="http://www.w3.org/2000/svg" viewBox="0 0 68 67" x="0px" y="0px"><path fill="#000000" fill-rule="evenodd" d="M446.085528,92 L446.085528,92 L438.085528,116 L418,116 C416.622304,116 415.657161,114.639649 416.112283,113.339299 L423.112283,93.3392992 C423.393044,92.5371256 424.150112,92 425,92 L446.085528,92 Z M441.252983,115.984468 L441.252983,115.984469 L449.133589,92.3426495 C449.461428,92.564977 449.731097,92.8955224 449.885981,93.3343598 L455.885981,110.33436 C456.283199,111.459811 455.612647,112.680414 454.449719,112.948782 L441.449719,115.948782 C441.383705,115.964016 441.318083,115.975863 441.252983,115.984468 Z M482.556976,107.113953 L483.443024,108.886047 C483.696154,109.392307 483.477314,109.960966 482.962779,110.173277 C482.962779,110.173277 482.747938,110.297013 481.796918,110.582319 C478.018264,111.715916 473.959695,111.715916 470.105573,109.788854 C467.301589,108.386862 464.589131,108.386862 462.17274,109.223305 C461.589865,109.42507 461.942927,109.307475 461.942927,109.307475 C461.43353,109.52147 460.796486,109.327476 460.509675,108.849459 L459.490325,107.150541 C459.199112,106.665186 459.372363,106.089991 459.867458,105.849417 C459.867458,105.849417 460.002727,105.741597 460.864297,105.443361 C464.225684,104.279804 468.031745,104.279804 471.894427,106.211146 C474.706972,107.617418 477.759514,107.617418 480.647526,106.751014 C481.069647,106.624378 481.172745,106.569686 481.172745,106.569686 C481.689866,106.374008 482.307673,106.615346 482.556976,107.113953 Z M465,116.667619 L468.118414,114.796571 C468.591208,114.512895 469.203514,114.672524 469.490325,115.150541 L470.509675,116.849459 C470.800888,117.334814 470.647272,117.944018 470.176397,118.226542 L468.887301,119 L470.176397,119.773458 C470.649191,120.057134 470.796486,120.672524 470.509675,121.150541 L469.490325,122.849459 C469.199112,123.334814 468.589289,123.485954 468.118414,123.203429 L465,121.332381 L461.881586,123.203429 C461.408792,123.487105 460.796486,123.327476 460.509675,122.849459 L459.490325,121.150541 C459.199112,120.665186 459.352728,120.055982 459.823603,119.773458 L461.112699,119 L459.823603,118.226542 C459.350809,117.942866 459.203514,117.327476 459.490325,116.849459 L460.509675,115.150541 C460.800888,114.665186 461.410711,114.514046 461.881586,114.796571 L465,116.667619 Z M482.154524,72.5953446 C480.128017,75.6314237 476.720648,77.4948776 473,77.4948776 C466.924868,77.4948776 462,72.5700098 462,66.4948776 C462,62.7742294 463.863454,59.3668602 466.899533,57.3403535 C468.259067,56.4328987 470.073981,57.4510202 470.008246,59.084264 C470.002754,59.2207192 470,59.3576062 470,59.4948776 C470,65.0177251 474.477153,69.4948776 480,69.4948776 C480.137271,69.4948776 480.274158,69.4921235 480.410614,69.4866315 C482.043857,69.4208968 483.061979,71.2358107 482.154524,72.5953446 Z M423,81 C419.134007,81 416,77.8659932 416,74 C416,70.1340068 419.134007,67 423,67 C423.600651,67 424.183632,67.0756523 424.739936,67.2179482 C426.231337,63.5701478 429.815523,61 434,61 C439.522847,61 444,65.4771525 444,71 C444,71.0334111 443.999836,71.066784 443.999509,71.1001178 C444.322771,71.0344651 444.657361,71 445,71 C447.761424,71 450,73.2385763 450,76 C450,78.7614237 447.761424,81 445,81 L423,81 Z" transform="translate(-416 -57)"></path></svg>