<svg height='100px' width='100px'  fill="#000000" xmlns="http://www.w3.org/2000/svg" xmlns:xlink="http://www.w3.org/1999/xlink" xml:space="preserve" version="1.1" style="shape-rendering:geometricPrecision;text-rendering:geometricPrecision;image-rendering:optimizeQuality;" viewBox="0 0 315 271" x="0px" y="0px" fill-rule="evenodd" clip-rule="evenodd"><defs><style type="text/css">
   
    .str0 {stroke:black;stroke-width:6.53899;stroke-linecap:round}
    .fil1 {fill:none}
    .fil0 {fill:#000000}
   
  </style></defs><g><path class="fil0" d="M23 149c-12,6 -11,24 1,30 0,3 1,20 7,20 6,0 7,-17 7,-21 4,-2 7,-6 8,-11 8,-3 12,-12 10,-20 25,-1 17,-37 -4,-33 -5,-17 -29,-14 -31,4 -12,6 -12,26 2,31z"></path><path class="fil0" d="M50 231c11,-1 11,-7 10,-12 16,6 20,23 6,28 3,-6 2,-6 2,-12 -24,8 -34,-4 -35,-10 -6,3 2,22 -26,7 -3,4 -3,8 0,14 -6,-3 -9,-12 -6,-16 3,-4 10,-8 16,-8 -2,1 -3,2 -3,5 0,2 3,4 5,5 0,-14 25,-9 9,-25 21,1 32,12 22,24z"></path><path class="fil1 str0" d="M68 250c-42,11 -64,17 -64,17"></path><path class="fil1 str0" d="M4 250c43,11 64,17 64,17"></path><polygon class="fil0" points="309,149 307,136 304,117 310,117 315,117 312,136 310,149 "></polygon><polygon class="fil0" points="83,149 85,136 88,117 82,117 77,117 80,136 82,149 "></polygon><polygon class="fil0" points="196,0 253,75 310,149 223,149 209,112 196,75 183,112 169,149 82,149 139,75 "></polygon></g></svg>