<svg height='100px' width='100px'  fill="#000000" xmlns="http://www.w3.org/2000/svg" data-name="Layer 1" viewBox="0 0 24 24" x="0px" y="0px"><title>codingArtboard 1 copy 5</title><path d="M12.84,19.88h0c-1.24-.84-1.23-1.68-1.23-1.68a4,4,0,0,0-.9,3h0a1.73,1.73,0,0,0,.4.83h2a1.37,1.37,0,0,0,.39-1A1.38,1.38,0,0,0,12.84,19.88Z"></path><path d="M12.12,6.79,14.6,3.37l-.81-.59L12,5.29V2H11V5.57L8.86,2.77l-.8.6,2.57,3.41L2.07,22h8.56a4.05,4.05,0,0,1-2.57-3.57,5,5,0,0,1,1.63-3.36,8.17,8.17,0,0,0,.75-1,3,3,0,0,0,.6-1.95,2.85,2.85,0,0,1,1,.68,3.92,3.92,0,0,1,1.07,1.67,7.56,7.56,0,0,1,.2,3s0,.46.27.6c.57.27,1.37-1.22.77-3.14l.13.11a4.51,4.51,0,0,1,1.63,3.41A4.05,4.05,0,0,1,13.55,22h9.19Z"></path></svg>