<svg height='100px' width='100px'  fill="#000000" xmlns="http://www.w3.org/2000/svg" xmlns:xlink="http://www.w3.org/1999/xlink" version="1.1" x="0px" y="0px" viewBox="0 0 55 55" style="enable-background:new 0 0 55 55;" xml:space="preserve"><g><g><g><polygon points="13.4999771,26.8201637 13.4999771,45.9101906 20.1399918,45.9101906 19.9100113,45.2501564    "></polygon></g></g><g><g><path d="M51.4499893,44.600193l-8-24c-0.1400146-0.4100342-0.5199585-0.6900024-0.9500122-0.6900024H14.531044     l-0.6010132-2.7162476l8.8499756-2.8937378c0.4099731-0.1400146,0.6900024-0.5200195,0.6900024-0.9500122     c0-0.4400024-0.2800293-0.8200073-0.6900024-0.9500122l-9.9700317-3.2600098     c-0.2999878-0.0999756-0.6399536-0.0499878-0.8899536,0.1400146c-0.2600098,0.1799927-0.4200439,0.4899902-0.4200439,0.8099976     v5.1599731l-0.1347656,5.8944092L3.5500264,44.600193c-0.1000366,0.2999878-0.0500488,0.6400146,0.1399536,0.8999634     c0.1900024,0.2600098,0.4900513,0.4100342,0.8099976,0.4100342h6.9999995V22.9308205h2.7590332l7.5910034,21.8093872     l0.4099731,1.1699829h28.2399902c0.3200073,0,0.6300049-0.1500244,0.8099976-0.4100342     C51.4999771,45.2402077,51.5500259,44.9001808,51.4499893,44.600193z"></path></g></g></g></svg>