<svg height='100px' width='100px'  fill="#000000" xmlns="http://www.w3.org/2000/svg" xmlns:xlink="http://www.w3.org/1999/xlink" version="1.1" x="0px" y="0px" viewBox="0 0 66 66" enable-background="new 0 0 66 66" xml:space="preserve"><g><g><path d="M64,56.7H2c-0.5,0-1,0.5-1,1v4.8c0,0.5,0.5,1,1,1h62c0.6,0,1-0.5,1-1v-4.8C65,57.2,64.6,56.7,64,56.7z"></path></g><g><path d="M61.1,53.6L38.6,21.5v10.1C42.1,42,54,49.8,61.1,53.6z"></path></g><g><path d="M38.6,36.5v18.2h20.3C52.5,51.2,43.3,44.9,38.6,36.5z"></path></g><g><polygon points="36.6,54.7 36.6,21.5 13.4,54.7   "></polygon></g><g><path d="M48.1,19.6c-0.4,0.2-0.6,0.5-0.6,0.9c0,0.4,0.2,0.8,0.6,0.9c6.5,2.8,13.8-1.9,13.8-9.1c0-7.1-7.4-11.9-13.8-9.1    c-0.8,0.3-0.8,1.5,0,1.8c2.9,1.3,4.8,4.1,4.8,7.3C52.8,15.5,51,18.3,48.1,19.6z"></path></g><g><path d="M19.1,16.5h12.6c2.6,0,4.1-2,4.2-4C36,10.8,35,9,33.1,8.3c0.2-5.1-6.4-7.7-9.6-3.5c-2.3-0.6-4.8,0.9-5.2,3.3    c-2.1,0.3-3.4,2.1-3.4,4.2C14.9,14.4,16.3,16.5,19.1,16.5z"></path></g><g><path d="M2.2,42.6h7.7v12.1h2V42.6h7.7c0.4,0,0.7-0.2,0.9-0.5c0.2-0.3,0.1-0.7-0.1-1l-4-5.7h1.6c0,0,0,0,0,0    c0.9,0,1.3-1.1,0.7-1.7l-3.4-4.8h0.6c0.9,0,1.3-1,0.8-1.6l-4.8-9.4c-0.3-0.7-1.4-0.7-1.8,0l-4.9,9.5c-0.3,0.6,0.1,1.5,0.9,1.5h0.6    L3,33.8c-0.5,0.7,0,1.6,0.8,1.6h1.6l-4.1,5.7c-0.2,0.3-0.2,0.7-0.1,1C1.5,42.4,1.8,42.6,2.2,42.6z"></path></g></g></svg>