<svg height='100px' width='100px'  fill="#000000" xmlns="http://www.w3.org/2000/svg" xmlns:xlink="http://www.w3.org/1999/xlink" version="1.1" x="0px" y="0px" viewBox="0 0 100 100" enable-background="new 0 0 100 100" xml:space="preserve"><g><g><rect x="86.759" y="44.507" width="1.921" height="4.263"></rect><polygon points="95,43.937 91.739,39.121 94.188,39.121 90.466,33.625 92.796,33.625 87.72,26.129 82.643,33.625 84.974,33.625     81.252,39.121 83.7,39.121 80.44,43.937   "></polygon><rect x="64.115" y="31.672" width="1.896" height="4.207"></rect><polygon points="72.248,31.109 69.03,26.357 71.446,26.357 67.773,20.933 70.073,20.933 65.063,13.535 60.053,20.933     62.353,20.933 58.68,26.357 61.097,26.357 57.879,31.109   "></polygon><rect x="30.284" y="30.137" width="1.736" height="3.851"></rect><polygon points="37.729,29.621 34.783,25.271 36.995,25.271 33.633,20.307 35.738,20.307 31.152,13.535 26.567,20.307     28.672,20.307 25.309,25.271 27.522,25.271 24.576,29.621   "></polygon><rect x="12.066" y="46.679" width="2.149" height="4.767"></rect><polygon points="21.281,46.041 17.635,40.657 20.373,40.657 16.211,34.511 18.817,34.511 13.14,26.129 7.464,34.511 10.07,34.511     5.908,40.657 8.646,40.657 5,46.041   "></polygon><g><polygon points="41.025,39.31 34.511,51.605 37.163,52.67 40.636,47.507 43.893,55.372 48.205,57.103    "></polygon><polygon points="41.788,38.844 54.406,34.978 61.7,51.239 49.377,57.103    "></polygon></g><polygon points="65.231,57.902 57.879,71.78 60.872,72.982 64.792,67.154 68.468,76.031 73.335,77.985   "></polygon><polygon points="66.092,57.376 80.333,53.013 88.566,71.366 74.658,77.985   "></polygon><polygon points="20.065,64.948 12.187,79.817 15.395,81.104 19.594,74.86 23.533,84.371 28.748,86.465   "></polygon><polygon points="20.987,64.384 36.246,59.71 45.067,79.373 30.165,86.465   "></polygon></g></g></svg>