<svg height='100px' width='100px'  fill="#FFFFFF" xmlns="http://www.w3.org/2000/svg" xmlns:xlink="http://www.w3.org/1999/xlink" version="1.1" x="0px" y="0px" viewBox="0 0 100 100" enable-background="new 0 0 100 100" xml:space="preserve"><path fill="#FFFFFF" d="M73.231,38.809H29.078v51.218h12.363V73.189c0-5.595,4.036-9.654,9.597-9.654h0.233  c5.562,0,9.599,4.06,9.599,9.654v16.837h12.361V38.809z"></path><path fill="#FFFFFF" d="M51.271,67.067h-0.233c-3.628,0-6.065,2.46-6.065,6.122v16.837h12.364V73.189  C57.337,69.527,54.899,67.067,51.271,67.067z"></path><path fill="#FFFFFF" d="M97.074,10.552h-1.766c-0.488,0-0.884,0.395-0.884,0.881v0.884v5.298v0.244c0,0.409,0.009,1.37,0,1.523  h-7.065c-0.501-0.011-1.755-1.264-1.766-1.768v-6.182c0-0.486-0.394-0.881-0.882-0.881h-1.768c-0.488,0-0.881,0.395-0.881,0.881  v0.884v5.298v0.244c0,0.409,0.008,1.37,0,1.523h-7.066c-0.501-0.011-1.755-1.264-1.766-1.768v-6.182  c0-0.486-0.396-0.881-0.884-0.881h-1.765c-0.488,0-0.884,0.395-0.884,0.881v0.884v13.246v0.884h0.884h2.648h1.766h19.428h1.766  h0.884c0.488,0,0.884-0.396,0.884-0.884v-14.13C97.958,10.947,97.563,10.552,97.074,10.552z"></path><polygon fill="#FFFFFF" points="25.546,37.043 25.546,28.212 9.651,28.212 9.651,90.026 25.546,90.026 "></polygon><path fill="#FFFFFF" d="M2.586,12.317v13.246v0.884h0.883h4.416h19.427h1.767h0.883c0.489,0,0.884-0.396,0.884-0.884v-14.13  c0-0.486-0.395-0.881-0.884-0.881h-1.766c-0.488,0-0.883,0.395-0.883,0.881v0.884v5.298v0.244c0,0.409,0.011,1.37,0,1.523h-7.064  c-0.502-0.011-1.756-1.264-1.766-1.768v-6.182c0-0.486-0.395-0.881-0.883-0.881h-1.766c-0.489,0-0.883,0.395-0.883,0.881v0.884  v5.298v0.244c0,0.409,0.01,1.37,0,1.523H7.885c-0.502-0.011-1.756-1.264-1.767-1.768v-6.182c0-0.486-0.395-0.881-0.882-0.881H3.469  c-0.488,0-0.883,0.395-0.883,0.881V12.317z"></path><polygon fill="#FFFFFF" points="92.657,28.212 76.765,28.212 76.765,37.043 76.765,90.026 92.657,90.026 "></polygon></svg>