<svg height='100px' width='100px'  fill="#000000" xmlns="http://www.w3.org/2000/svg" xmlns:xlink="http://www.w3.org/1999/xlink" version="1.1" x="0px" y="0px" viewBox="0 0 95 95" enable-background="new 0 0 95 95" xml:space="preserve"><path d="M43.842,51.833V74.07c-6.408,0.682-11.215,3.524-11.215,6.931c0,3.916,6.348,7.089,14.178,7.089  c7.832,0,14.18-3.173,14.18-7.089c0-3.155-4.127-5.826-9.826-6.745V51.833c7.914-1.496,14.158-7.74,15.654-15.653h6.299v-7.317  h-6.299c-1.496-7.913-7.74-14.157-15.654-15.653v-6.3h-7.316v6.3c-7.912,1.496-14.156,7.74-15.652,15.653h-6.301v7.317h6.301  C29.686,44.093,35.93,50.337,43.842,51.833z M51.158,16.953c5.891,1.385,10.527,6.021,11.91,11.91h-11.91V16.953z M51.158,36.181  h11.91c-1.383,5.889-6.02,10.525-11.91,11.91V36.181z M43.842,16.953v11.91h-11.91C33.316,22.974,37.953,18.338,43.842,16.953z   M43.842,36.181v11.91c-5.889-1.385-10.525-6.021-11.91-11.91H43.842z"></path></svg>