<svg xmlns="http://www.w3.org/2000/svg" xmlns:xlink="http://www.w3.org/1999/xlink" width="100" height="100" viewBox="0 0 100 100"><svg viewBox="0 0 99.999997 99.999997"><g transform="translate(-149.6453,-589.21878)"><path d="m 199.64552,591.21879 a 48.000099,48.000099 0 0 0 -48.00022,48.00022 48.000099,48.000099 0 0 0 48.00022,47.99977 48.000099,48.000099 0 0 0 47.99977,-47.99977 48.000099,48.000099 0 0 0 -47.99977,-48.00022 z m 0,5.42088 a 42.107528,42.578935 0 0 1 42.10718,42.57934 42.107528,42.578935 0 0 1 -42.10718,42.57887 42.107528,42.578935 0 0 1 -42.10763,-42.57887 42.107528,42.578935 0 0 1 42.10763,-42.57934 z" fill="#1A1A1A"></path></g></svg><g transform="translate(50 50) scale(0.69 0.69) rotate(0) translate(-50 -50)" style="fill:#000000"><svg fill="#000000" xmlns="http://www.w3.org/2000/svg" xmlns:xlink="http://www.w3.org/1999/xlink" version="1.1" x="0px" y="0px" viewBox="0 0 164 164" enable-background="new 0 0 164 164" xml:space="preserve"><path fill-rule="evenodd" clip-rule="evenodd" d="M138.931,141.525c2.929-18.85,8.467-35.832,17.529-56.768  c0.468,0.123,0.958,0.188,1.464,0.188c3.179,0,5.757-2.578,5.757-5.755c0-3.178-2.578-5.756-5.757-5.756  c-3.178,0-5.755,2.578-5.755,5.756c0,2.292,1.343,4.273,3.283,5.198c-32.851,51.263-35.965,30.695-33.901-22.184  c2.991-0.207,5.352-2.698,5.352-5.741c0-3.179-2.577-5.756-5.756-5.756c-3.178,0-5.755,2.577-5.755,5.756  c0,2.969,2.249,5.413,5.136,5.722c-27.409,102.799-34.128,4.047-37.924-34.121c4.9-0.39,8.757-4.49,8.757-9.49  c0-5.259-4.263-9.521-9.521-9.521c-5.258,0-9.521,4.263-9.521,9.521c0,4.775,3.516,8.729,8.1,9.415  c-3.251,38.022-7.537,136.883-37.114,34.178c2.813-0.377,4.983-2.788,4.983-5.703c0-3.179-2.577-5.756-5.756-5.756  c-3.178,0-5.755,2.577-5.755,5.756c0,3.066,2.4,5.574,5.423,5.745c2.901,54.835,1.929,73.693-33.627,22.001  c1.753-0.986,2.938-2.865,2.938-5.019c0-3.178-2.578-5.756-5.756-5.756C2.578,73.435,0,76.013,0,79.191  c0,3.177,2.578,5.755,5.755,5.755c0.548,0,1.08-0.078,1.582-0.221c9.108,20.881,14.401,37.97,17.321,56.766L138.931,141.525  L138.931,141.525z M138.841,146.934c0,2.778,0,5.556,0,8.333c-38,0-76.004,0-114.002,0c0-2.777,0-5.555,0-8.333  C62.837,146.934,100.841,146.934,138.841,146.934z"></path></svg></g></svg>