<svg xmlns="http://www.w3.org/2000/svg" xmlns:xlink="http://www.w3.org/1999/xlink" width="100" height="100" viewBox="0 0 100 100"><g transform="translate(50 50) scale(0.69 0.69) rotate(-180) translate(-50 -50)" style="fill:#FFFFFF"><svg fill="#FFFFFF" xmlns:x="http://ns.adobe.com/Extensibility/1.0/" xmlns:i="http://ns.adobe.com/AdobeIllustrator/10.0/" xmlns:graph="http://ns.adobe.com/Graphs/1.0/" xmlns="http://www.w3.org/2000/svg" xmlns:xlink="http://www.w3.org/1999/xlink" xmlns:a="http://ns.adobe.com/AdobeSVGViewerExtensions/3.0/" version="1.1" x="0px" y="0px" viewBox="0 0 59.941 58.889" enable-background="new 0 0 59.941 58.889" xml:space="preserve"><path d="M58.418,5.198c1.403-1.43,1.404-3.75,0-5.18c-1.406-1.431-3.686-1.431-5.09,0c-0.882,0.896-1.209,2.144-0.984,3.301  l-6.779,6.899l-4.246-4.322l-2.123,2.16l3.539,3.603L29.471,25.158L16.21,11.659l3.539-3.603l-2.122-2.16l-4.248,4.322l-6.78-6.9  c0.225-1.157-0.104-2.403-0.984-3.301c-1.404-1.431-3.686-1.431-5.089,0c-1.406,1.432-1.406,3.75,0,5.181  c0.881,0.896,2.105,1.23,3.242,1.003l6.779,6.899L6.3,17.424l2.123,2.161l3.54-3.603l13.262,13.499L2.863,52.241l-2.338,6.702  l6.584-2.379L29.47,33.803l22.362,22.762l6.585,2.38l-2.338-6.702L33.718,29.48l13.262-13.498l3.54,3.604l2.123-2.161l-4.247-4.323  l6.779-6.899C56.311,6.429,57.535,6.095,58.418,5.198z"></path></svg></g></svg>