<svg height='100px' width='100px'  fill="#000000" xmlns="http://www.w3.org/2000/svg" xmlns:xlink="http://www.w3.org/1999/xlink" version="1.1" x="0px" y="0px" viewBox="0 0 100 100" enable-background="new 0 0 100 100" xml:space="preserve"><path d="M67.155,9.832c-6.884-0.301-11.864,1.601-16.264,3.283c-4.969,1.899-9.259,3.54-15.843,2.28  c-6.98-1.335-14.331-5.008-19.195-7.438c-0.766-0.383-1.476-0.738-2.123-1.053c-1.185-0.577-2.563-0.363-3.516,0.54  c-0.955,0.904-1.242,2.27-0.736,3.482l-0.001,0L43.88,93.555l4.615-1.922l-14.393-34.57c2.992,1.372,6.826,2.555,11.183,2.555  c0.037,0,0.075,0,0.112,0c6.775-0.032,10.843-2.948,14.431-5.52c3.08-2.208,5.988-4.293,10.638-4.739  c6.717-0.642,14.851,4.093,14.93,4.14l3.771,2.229V21.049l-0.421-0.63C88.476,20.014,81.948,10.489,67.155,9.832z M84.167,47.307  c-3.535-1.552-9.031-3.418-14.178-2.925c-5.991,0.575-9.754,3.272-13.074,5.653c-3.412,2.446-6.359,4.559-11.541,4.583  c-0.029,0-0.058,0-0.088,0c-7.037,0-12.618-3.953-14.123-5.129L16.047,13.635c4.962,2.436,11.535,5.422,18.063,6.671  c7.978,1.526,13.362-0.531,18.567-2.521c4.33-1.655,8.426-3.216,14.256-2.958c10.392,0.461,15.759,6.017,17.234,7.818V47.307z"></path></svg>