<svg height='100px' width='100px'  fill="#000000" xmlns="http://www.w3.org/2000/svg" xmlns:xlink="http://www.w3.org/1999/xlink" version="1.1" x="0px" y="0px" viewBox="0 0 100 100" style="enable-background:new 0 0 100 100;" xml:space="preserve"><path d="M31.9,95c-0.7,0-1.3-0.4-1.4-1.1L11.6,23.5c-0.1-0.5,0-1,0.3-1.4c0.3-0.4,7.7-9,17.2-11.5c5-1.3,10.1,0.1,15,1.5  c4.8,1.3,9.3,2.6,13.5,1.5c8.8-2.4,16.5-8.2,16.6-8.2c0.4-0.3,0.9-0.4,1.4-0.2c0.5,0.2,0.8,0.5,1,1l11.9,44.5  c0.2,0.6-0.1,1.2-0.5,1.6c-0.3,0.3-8.3,6.2-17.6,8.7c-5,1.3-10.1-0.1-15-1.5c-4.8-1.3-9.3-2.6-13.5-1.5c-3.1,0.8-6.4,2.5-9.7,5.1  c-0.7,0.5-1.6,0.4-2.1-0.3c-0.5-0.7-0.4-1.6,0.3-2.1c3.6-2.8,7.2-4.6,10.8-5.6c5-1.3,10.1,0.1,15,1.5c4.8,1.3,9.3,2.6,13.5,1.5  c7.1-1.9,13.6-6.1,15.8-7.6L74.2,9c-2.9,2-9,5.6-15.8,7.5c-5,1.3-10.1-0.1-15-1.5c-4.8-1.3-9.3-2.6-13.5-1.5  c-7.3,2-13.4,8.1-15.2,10l18.6,69.6c0.2,0.8-0.3,1.6-1.1,1.8C32.1,95,32,95,31.9,95z"></path></svg>