<svg height='100px' width='100px'  fill="#000000" xmlns="http://www.w3.org/2000/svg" viewBox="0 0 80.09 89.98" x="0px" y="0px"><title>Livello 10</title><g data-name="Livello 2"><g data-name="Livello 10"><g data-name="Livello 2"><g data-name="Livello 8"><path d="M79.51,49.06,68.24,32.15,79.18,4.8A3.5,3.5,0,0,0,74.37.37L65.09,5a26.77,26.77,0,0,1-23.8,0A30.73,30.73,0,0,0,13.91,5l-12,6A3.49,3.49,0,0,0,0,14.11V90H2.5V66.37l13.19-6.6a26.73,26.73,0,0,1,23.81,0,30.8,30.8,0,0,0,27.38,0l11.28-5.64a3.5,3.5,0,0,0,1.57-4.69c-.07-.13-.14-.26-.22-.38ZM65.09,56.19a26.71,26.71,0,0,1-23.8,0,30.8,30.8,0,0,0-27.38,0L4,61.15V14.42L15.69,8.58a26.73,26.73,0,0,1,23.81,0,30.73,30.73,0,0,0,27.38,0l8.1-4L64.42,30.91a3.52,3.52,0,0,0,.34,3.24L75.87,50.81Z"></path></g></g></g></g></svg>