<svg height='100px' width='100px'  fill="#000000" xmlns="http://www.w3.org/2000/svg" xmlns:xlink="http://www.w3.org/1999/xlink" version="1.1" x="0px" y="0px" viewBox="0 26 100 104" enable-background="new 0 26 100 104" xml:space="preserve"><path d="M86.583,38.034c-1.399-0.331-3.017-0.125-4.14,0.527c-2.618,1.516-6.721,3.255-15.28,3.255  c-8.276,0-13.326-1.685-14.701-2.817c-1.578-1.299-7.792-5.537-21.5-5.537c-5.367,0-10.472,0.547-14.376,1.539  c-0.509,0.129-0.992,0.27-1.461,0.416v-0.775v-0.314c0-2.161-1.752-3.913-3.913-3.913s-3.913,1.752-3.913,3.913v88.702h7.826V91.457  c4.192-1.922,7.518-3.439,15.631-3.439c8.825,0,13.828,2.191,14.885,2.959c4.999,3.631,11.97,5.396,21.316,5.396  c5.367,0,10.474-0.547,14.377-1.539c5.513-1.399,8.309-3.587,8.309-6.502V41.284C89.642,39.75,88.441,38.474,86.583,38.034z   M85.642,88.331c0,0.211-0.92,1.515-5.294,2.625c-3.591,0.913-8.347,1.416-13.392,1.416c-8.471,0-14.674-1.515-18.964-4.632  c-2.469-1.793-8.916-3.723-17.236-3.723c-7.312,0-11.352,1.223-14.904,2.732V39.38c0.533-0.179,1.107-0.347,1.719-0.502  c3.591-0.913,8.347-1.416,13.391-1.416c12.696,0,18.02,3.853,18.957,4.625c2.752,2.266,9.52,3.729,17.245,3.729  c9.512,0,14.233-2.027,17.286-3.794c0.095-0.055,0.356-0.148,0.739-0.148c0.157,0,0.312,0.017,0.453,0.048V88.331z"></path></svg>