<svg height='100px' width='100px'  fill="#000000" xmlns="http://www.w3.org/2000/svg" xmlns:xlink="http://www.w3.org/1999/xlink" version="1.1" x="0px" y="0px" viewBox="0 0 95 95" enable-background="new 0 0 95 95" xml:space="preserve"><path d="M47.446,3.666C23.237,3.695,3.637,23.345,3.666,47.554s19.679,43.81,43.888,43.78c24.209-0.03,43.81-19.679,43.78-43.888  S71.655,3.637,47.446,3.666z M72.334,50.064c0,3.129-2.536,5.665-5.666,5.665H55.73v10.938c0,3.129-2.536,5.666-5.666,5.666h-5.129  c-3.129,0-5.666-2.537-5.666-5.666V55.729H28.332c-3.129,0-5.666-2.536-5.666-5.665v-5.129c0-3.13,2.537-5.665,5.666-5.665H39.27  V28.331c0-3.129,2.537-5.665,5.666-5.665h5.129c3.13,0,5.666,2.536,5.666,5.665v10.939h10.938c3.13,0,5.666,2.535,5.666,5.665  V50.064z"></path></svg>