<svg height='100px' width='100px'  fill="#000000" xmlns="http://www.w3.org/2000/svg" xmlns:xlink="http://www.w3.org/1999/xlink" version="1.1" x="0px" y="0px" viewBox="0 0 32 32" enable-background="new 0 0 32 32" xml:space="preserve"><path d="M16,2C8.268,2,2,8.268,2,16c0,7.732,6.268,14,14,14c7.732,0,14-6.268,14-14C30,8.268,23.732,2,16,2z M16,27.2  C9.824,27.2,4.8,22.176,4.8,16S9.824,4.8,16,4.8S27.2,9.824,27.2,16S22.176,27.2,16,27.2z"></path><path d="M16,7.5c-4.694,0-8.5,3.806-8.5,8.5c0,4.693,3.806,8.5,8.5,8.5c4.693,0,8.5-3.807,8.5-8.5C24.5,11.306,20.693,7.5,16,7.5z   M16,21.7c-3.143,0-5.7-2.558-5.7-5.7c0-3.143,2.557-5.7,5.7-5.7c3.143,0,5.7,2.557,5.7,5.7C21.7,19.143,19.143,21.7,16,21.7z"></path><circle cx="16" cy="16" r="3"></circle></svg>