<svg height='100px' width='100px'  fill="#000000" xmlns="http://www.w3.org/2000/svg" xmlns:xlink="http://www.w3.org/1999/xlink" version="1.1" x="0px" y="0px" viewBox="0 0 95 95" enable-background="new 0 0 95 95" xml:space="preserve"><path d="M82.864,46.952c-0.133-8.81-3.605-16.804-9.212-22.779c-6.109-5.808-14.361-9.382-23.457-9.382  c-0.29,0-0.576,0.015-0.865,0.022v-0.709c0.059,0,0.115-0.005,0.173-0.005c9.338,0,17.783,3.769,23.937,9.851  C67.349,17.574,58.811,13.563,49.33,13.42V6.868h-1.037v6.552c-18.4,0.276-33.257,15.131-33.532,33.532H8.208v1.038h6.553  c0.142,9.48,4.153,18.018,10.529,24.109c-6.083-6.152-9.851-14.599-9.851-23.936c0-0.058,0.003-0.115,0.003-0.173h0.71  c-0.007,0.289-0.021,0.575-0.021,0.866c0,9.095,3.574,17.347,9.383,23.457c5.975,5.606,13.97,9.079,22.779,9.211v6.551h1.037v-6.552  c18.401-0.276,33.257-15.131,33.532-33.533h6.553v-1.038H82.864z M48.293,74.71c-14.638-0.274-26.446-12.082-26.72-26.72h4.542  c0.271,12.129,10.048,21.905,22.178,22.178V74.71z M48.293,65.626c-9.621-0.271-17.365-8.015-17.636-17.636h4.893  c0.269,6.922,5.82,12.474,12.743,12.743V65.626z M48.293,56.432c-4.548-0.26-8.182-3.895-8.442-8.442h3.991  c0.243,2.345,2.105,4.209,4.451,4.451V56.432z M48.293,42.502c-2.345,0.242-4.208,2.105-4.451,4.45h-3.991  c0.261-4.547,3.895-8.181,8.442-8.441V42.502z M48.293,34.21c-6.923,0.269-12.475,5.82-12.742,12.742h-4.894  c0.271-9.621,8.015-17.365,17.636-17.635V34.21z M48.293,24.775c-12.13,0.273-21.905,10.048-22.178,22.177h-4.542  c0.274-14.638,12.082-26.445,26.72-26.719V24.775z M48.293,14.847C30.994,15.8,17.14,29.654,16.187,46.952H15.47  c0.625-17.85,14.974-32.197,32.823-32.822V14.847z M49.33,29.317c9.621,0.271,17.365,8.015,17.636,17.635h-4.894  C61.805,40.03,56.253,34.479,49.33,34.21V29.317z M49.33,38.511c4.548,0.26,8.182,3.894,8.441,8.441H53.78  c-0.242-2.345-2.105-4.208-4.45-4.45V38.511z M49.33,52.441c2.346-0.242,4.208-2.106,4.45-4.451h3.991  c-0.26,4.547-3.894,8.182-8.441,8.442V52.441z M49.33,60.733c6.923-0.269,12.475-5.82,12.743-12.743h4.893  c-0.271,9.621-8.015,17.365-17.636,17.636V60.733z M49.33,74.71v-4.542C61.46,69.896,71.235,60.12,71.508,47.99h4.541  C75.776,62.628,63.968,74.436,49.33,74.71z M71.508,46.952C71.234,34.823,61.46,25.048,49.33,24.775v-4.542  c14.637,0.274,26.445,12.082,26.719,26.719H71.508z"></path></svg>