<svg height='100px' width='100px'  fill="#000000" xmlns="http://www.w3.org/2000/svg" xmlns:xlink="http://www.w3.org/1999/xlink" version="1.1" x="0px" y="0px" viewBox="0 0 100 100" enable-background="new 0 0 100 100" xml:space="preserve"><g><polygon points="35.326,25.411 28.021,39.198 30.996,40.392 34.889,34.602 38.541,43.421 43.377,45.362  "></polygon><polygon points="36.181,24.888 50.33,20.554 58.509,38.787 44.691,45.362  "></polygon><polygon points="61.484,47.801 53.24,63.361 56.597,64.709 60.991,58.175 65.113,68.128 70.571,70.319  "></polygon><polygon points="62.45,47.21 78.419,42.319 87.65,62.898 72.054,70.319  "></polygon><polygon points="21.183,55.319 12.35,71.991 15.947,73.435 20.655,66.434 25.072,77.099 30.92,79.446  "></polygon><polygon points="22.218,54.687 39.327,49.445 49.218,71.494 32.508,79.446  "></polygon></g></svg>