<svg height='100px' width='100px'  fill="#FFFFFF" xmlns="http://www.w3.org/2000/svg" xmlns:xlink="http://www.w3.org/1999/xlink" version="1.1" x="0px" y="0px" viewBox="0 0 100 100" enable-background="new 0 0 100 100" xml:space="preserve"><path fill-rule="evenodd" clip-rule="evenodd" d="M87.05,6.565l0.025-0.062l-0.082,0.096l-6.117,3.715l-53.63,59.741l-5.544-4.712  c-1.028-0.873-2.568-0.748-3.441,0.279c-0.873,1.027-0.748,2.568,0.279,3.441l7.284,6.191c-3.009,3.919-5.913,7.699-8.893,11.581  c-1.219-0.309-2.512,0.03-3.323,0.995c-1.159,1.383-0.882,3.526,0.62,4.785c1.5,1.259,3.659,1.158,4.818-0.226  c0.801-0.955,0.916-2.273,0.416-3.412c3.314-3.641,6.554-7.201,9.817-10.786l7.304,6.207c1.027,0.873,2.568,0.748,3.44-0.28  c0.873-1.027,0.748-2.568-0.279-3.44l-5.527-4.697l50.126-62.719l2.68-6.635l0.082-0.096L87.05,6.565z"></path></svg>