<svg height='100px' width='100px'  fill="#000000" xmlns="http://www.w3.org/2000/svg" xmlns:xlink="http://www.w3.org/1999/xlink" version="1.1" x="0px" y="0px" viewBox="0 0 100 100" enable-background="new 0 0 100 100" xml:space="preserve"><path d="M78.355,69.037c-25.265,15.173-58.056,6.979-73.214-18.3c4.519-7.513,10.802-13.795,18.3-18.3  c25.279-15.173,58.056-6.964,73.215,18.3C92.15,58.249,85.868,64.532,78.355,69.037z M89.484,50.737  C74.311,29.444,44.749,24.464,23.441,39.624c-4.297,3.067-8.046,6.816-11.113,11.114c15.158,21.308,44.719,26.286,66.028,11.128  C82.668,58.798,86.416,55.034,89.484,50.737z"></path><path d="M66.635,50.737c0,8.697-7.039,15.722-15.736,15.722c-8.683,0-15.722-7.024-15.722-15.722  c0-8.684,7.039-15.723,15.722-15.723C59.596,35.015,66.635,42.054,66.635,50.737L66.635,50.737z M39.904,49.966  c1.155,0.326,2.355-0.355,2.667-1.511c0.919-3.378,3.794-5.868,7.276-6.298c1.185-0.148,2.03-1.229,1.881-2.415  c-0.147-1.186-1.214-2.031-2.399-1.882c-5.231,0.652-9.543,4.386-10.937,9.454C38.081,48.469,38.748,49.655,39.904,49.966z"></path></svg>